{
    "asset" : {
        "generator" : "Khronos glTF Blender I/O v3.2.43",
        "version" : "2.0"
    },
    "scene" : 0,
    "scenes" : [
        {
            "name" : "Scene",
            "nodes" : [
                0
            ]
        }
    ],
    "nodes" : [
        {
            "mesh" : 0,
            "name" : "Plane.001",
            "rotation" : [
                0.5,
                0.5,
                -0.5,
                0.4999999701976776
            ],
            "scale" : [
                0.19001030921936035,
                1.0835975408554077,
                0.47301334142684937
            ],
            "translation" : [
                1.4953712224960327,
                3.5543363094329834,
                -0.0003726184368133545
            ]
        }
    ],
    "materials" : [
        {
            "doubleSided" : true,
            "name" : "Material.004",
            "pbrMetallicRoughness" : {
                "baseColorFactor" : [
                    1,
                    0.9450069665908813,
                    0.8270061016082764,
                    1
                ],
                "metallicFactor" : 0,
                "roughnessFactor" : 0.5
            }
        },
        {
            "doubleSided" : true,
            "name" : "Material.001",
            "pbrMetallicRoughness" : {
                "baseColorFactor" : [
                    0.800000011920929,
                    0.800000011920929,
                    0.800000011920929,
                    1
                ],
                "metallicFactor" : 40,
                "roughnessFactor" : 0.5
            }
        },
        {
            "doubleSided" : true,
            "name" : "Material.002",
            "pbrMetallicRoughness" : {
                "baseColorFactor" : [
                    0.415470689535141,
                    0.415470689535141,
                    0.415470689535141,
                    1
                ],
                "metallicFactor" : 0,
                "roughnessFactor" : 0.5
            }
        },
        {
            "doubleSided" : true,
            "name" : "Material.003",
            "pbrMetallicRoughness" : {
                "baseColorFactor" : [
                    0.005980643909424543,
                    0.005980643909424543,
                    0.005980643909424543,
                    1
                ],
                "metallicFactor" : 0,
                "roughnessFactor" : 0.5
            }
        }
    ],
    "meshes" : [
        {
            "name" : "Plane.001",
            "primitives" : [
                {
                    "attributes" : {
                        "POSITION" : 0,
                        "NORMAL" : 1,
                        "TEXCOORD_0" : 2
                    },
                    "indices" : 3,
                    "material" : 0
                },
                {
                    "attributes" : {
                        "POSITION" : 4,
                        "NORMAL" : 5,
                        "TEXCOORD_0" : 6
                    },
                    "indices" : 7,
                    "material" : 1
                },
                {
                    "attributes" : {
                        "POSITION" : 8,
                        "NORMAL" : 9,
                        "TEXCOORD_0" : 10
                    },
                    "indices" : 11,
                    "material" : 2
                },
                {
                    "attributes" : {
                        "POSITION" : 12,
                        "NORMAL" : 13,
                        "TEXCOORD_0" : 14
                    },
                    "indices" : 11,
                    "material" : 3
                }
            ]
        }
    ],
    "accessors" : [
        {
            "bufferView" : 0,
            "componentType" : 5126,
            "count" : 8,
            "max" : [
                2.4803473949432373,
                0,
                1
            ],
            "min" : [
                -2.482693910598755,
                -0.005525767803192139,
                -1
            ],
            "type" : "VEC3"
        },
        {
            "bufferView" : 1,
            "componentType" : 5126,
            "count" : 8,
            "type" : "VEC3"
        },
        {
            "bufferView" : 2,
            "componentType" : 5126,
            "count" : 8,
            "type" : "VEC2"
        },
        {
            "bufferView" : 3,
            "componentType" : 5123,
            "count" : 12,
            "type" : "SCALAR"
        },
        {
            "bufferView" : 4,
            "componentType" : 5126,
            "count" : 192,
            "max" : [
                1.3910452127456665,
                -0.9903082847595215,
                7.010540008544922
            ],
            "min" : [
                -1.5330535173416138,
                -1.7697041034698486,
                -2.990205764770508
            ],
            "type" : "VEC3"
        },
        {
            "bufferView" : 5,
            "componentType" : 5126,
            "count" : 192,
            "type" : "VEC3"
        },
        {
            "bufferView" : 6,
            "componentType" : 5126,
            "count" : 192,
            "type" : "VEC2"
        },
        {
            "bufferView" : 7,
            "componentType" : 5123,
            "count" : 372,
            "type" : "SCALAR"
        },
        {
            "bufferView" : 8,
            "componentType" : 5126,
            "count" : 192,
            "max" : [
                5.708439350128174,
                -0.2877664566040039,
                7.963350296020508
            ],
            "min" : [
                -5.850447177886963,
                -2.472245931625366,
                -2.440840721130371
            ],
            "type" : "VEC3"
        },
        {
            "bufferView" : 9,
            "componentType" : 5126,
            "count" : 192,
            "type" : "VEC3"
        },
        {
            "bufferView" : 10,
            "componentType" : 5126,
            "count" : 192,
            "type" : "VEC2"
        },
        {
            "bufferView" : 11,
            "componentType" : 5123,
            "count" : 372,
            "type" : "SCALAR"
        },
        {
            "bufferView" : 12,
            "componentType" : 5126,
            "count" : 192,
            "max" : [
                7.652825832366943,
                0.0042716264724731445,
                7.818905830383301
            ],
            "min" : [
                -8.135793685913086,
                -2.764284133911133,
                -2.3549113273620605
            ],
            "type" : "VEC3"
        },
        {
            "bufferView" : 13,
            "componentType" : 5126,
            "count" : 192,
            "type" : "VEC3"
        },
        {
            "bufferView" : 14,
            "componentType" : 5126,
            "count" : 192,
            "type" : "VEC2"
        }
    ],
    "bufferViews" : [
        {
            "buffer" : 0,
            "byteLength" : 96,
            "byteOffset" : 0
        },
        {
            "buffer" : 0,
            "byteLength" : 96,
            "byteOffset" : 96
        },
        {
            "buffer" : 0,
            "byteLength" : 64,
            "byteOffset" : 192
        },
        {
            "buffer" : 0,
            "byteLength" : 24,
            "byteOffset" : 256
        },
        {
            "buffer" : 0,
            "byteLength" : 2304,
            "byteOffset" : 280
        },
        {
            "buffer" : 0,
            "byteLength" : 2304,
            "byteOffset" : 2584
        },
        {
            "buffer" : 0,
            "byteLength" : 1536,
            "byteOffset" : 4888
        },
        {
            "buffer" : 0,
            "byteLength" : 744,
            "byteOffset" : 6424
        },
        {
            "buffer" : 0,
            "byteLength" : 2304,
            "byteOffset" : 7168
        },
        {
            "buffer" : 0,
            "byteLength" : 2304,
            "byteOffset" : 9472
        },
        {
            "buffer" : 0,
            "byteLength" : 1536,
            "byteOffset" : 11776
        },
        {
            "buffer" : 0,
            "byteLength" : 744,
            "byteOffset" : 13312
        },
        {
            "buffer" : 0,
            "byteLength" : 2304,
            "byteOffset" : 14056
        },
        {
            "buffer" : 0,
            "byteLength" : 2304,
            "byteOffset" : 16360
        },
        {
            "buffer" : 0,
            "byteLength" : 1536,
            "byteOffset" : 18664
        }
    ],
    "buffers" : [
        {
            "byteLength" : 20200,
            "uri" : "data:application/octet-stream;base64,"
        }
    ]
}
